<?xml version="1.0" encoding="UTF-8" standalone="no"?>
<!DOCTYPE svg PUBLIC "-//W3C//DTD SVG 1.1//EN" "http://www.w3.org/Graphics/SVG/1.1/DTD/svg11.dtd">
<svg width="100%" height="100%" viewBox="0 0 120 120" version="1.1" xmlns="http://www.w3.org/2000/svg" xmlns:xlink="http://www.w3.org/1999/xlink" xml:space="preserve" style="fill-rule:evenodd;clip-rule:evenodd;stroke-linejoin:round;stroke-miterlimit:1.41421;">
    <g transform="matrix(1,0,0,1,-0.46209,0.643186)">
        <circle cx="60" cy="60" r="60" style="fill:rgb(22,39,64);"/>
    </g>
    <path d="M27.3,96C23.7,95.9 21.1,94.9 19.3,93C17.5,91.1 16.6,88.1 16.6,83.8L16.6,71.3C16.6,64.7 14.4,61 10.1,60.4L10.1,57.7C14.5,57.1 16.6,53.7 16.6,47.5L16.6,34.4C16.6,30.1 17.5,27.1 19.3,25.2C21.1,23.3 23.8,22.3 27.3,22.2L27.3,25.7C24.8,25.8 23.1,26.6 22.1,28.1C21.1,29.6 20.6,32.1 20.6,35.6L20.6,47.9C20.6,54.1 18.6,57.8 14.5,59.1L14.5,59.3C18.6,60.6 20.6,64.5 20.6,71.1L20.6,82.7C20.6,86.3 21.1,88.8 22.1,90.2C23.1,91.7 24.8,92.5 27.3,92.6L27.3,96Z" style="fill:rgb(60,145,207);fill-rule:nonzero;"/>
    <path d="M110.9,60.4C106.6,61 104.4,64.7 104.4,71.3L104.4,83.8C104.4,88.1 103.5,91.1 101.7,93C99.9,94.9 97.2,95.9 93.7,96L93.7,92.5C96,92.4 97.7,91.6 98.8,90.3C99.9,89 100.4,86.4 100.4,82.6L100.4,71C100.4,64.4 102.4,60.5 106.5,59.2L106.5,59C102.4,57.7 100.4,54 100.4,47.8L100.4,35.6C100.4,31.8 99.9,29.3 98.8,27.9C97.7,26.6 96,25.8 93.7,25.7L93.7,22.2C97.3,22.3 99.9,23.3 101.7,25.2C103.5,27.1 104.4,30.1 104.4,34.4L104.4,47.6C104.4,53.8 106.6,57.2 110.9,57.8L110.9,60.4Z" style="fill:rgb(60,145,207);fill-rule:nonzero;"/>
    <g>
        <g>
            <g transform="matrix(1,0,0,1,-3.96926,1.22695)">
                <path d="M57.863,47.472L65.373,49.853C64.222,54.04 62.307,57.15 59.629,59.183C56.951,61.215 53.553,62.231 49.436,62.231C44.342,62.231 40.155,60.491 36.875,57.011C33.595,53.53 31.955,48.772 31.955,42.735C31.955,36.35 33.604,31.391 36.901,27.858C40.198,24.325 44.534,22.559 49.907,22.559C54.6,22.559 58.412,23.946 61.343,26.72C63.088,28.36 64.396,30.715 65.268,33.785L57.601,35.617C57.147,33.628 56.201,32.058 54.762,30.907C53.322,29.755 51.573,29.18 49.515,29.18C46.671,29.18 44.364,30.2 42.593,32.242C40.822,34.283 39.937,37.589 39.937,42.16C39.937,47.01 40.809,50.464 42.554,52.523C44.298,54.581 46.566,55.611 49.358,55.611C51.416,55.611 53.187,54.956 54.67,53.648C56.153,52.339 57.217,50.281 57.863,47.472Z" style="fill:white;fill-rule:nonzero;"/>
                <path d="M72.151,52.025L68.592,52.025L68.592,46.268L73.302,46.268L74.873,38.548L68.592,38.548L68.592,32.765L76.05,32.765L78.118,22.559L83.979,22.559L81.912,32.765L87.695,32.765L89.71,22.559L95.782,22.559L93.688,32.765L97.299,32.765L97.299,38.548L92.511,38.548L90.94,46.268L97.299,46.268L97.299,52.025L89.763,52.025L87.695,62.231L81.86,62.231L83.875,52.025L78.065,52.025L75.998,62.231L70.084,62.231L72.151,52.025ZM80.761,38.548L79.217,46.268L85.026,46.268L86.544,38.548L80.761,38.548Z" style="fill:white;fill-rule:nonzero;"/>
            </g>
            <g transform="matrix(1,0,0,1,3.41931,-1.30584)">
                <path d="M37.232,94.011L37.232,71.759L52.486,71.759L52.486,75.524L41.725,75.524L41.725,80.79L51.014,80.79L51.014,84.555L41.725,84.555L41.725,94.011L37.232,94.011Z" style="fill:rgb(255,163,0);fill-rule:nonzero;"/>
                <path d="M56.16,75.706L56.16,71.759L60.425,71.759L60.425,75.706L56.16,75.706ZM56.16,94.011L56.16,77.891L60.425,77.891L60.425,94.011L56.16,94.011Z" style="fill:rgb(255,163,0);fill-rule:nonzero;"/>
                <path d="M62.747,94.011L68.561,85.708L62.99,77.891L68.196,77.891L71.05,82.324L74.055,77.891L79.064,77.891L73.6,85.526L79.565,94.011L74.328,94.011L71.05,89.017L67.741,94.011L62.747,94.011Z" style="fill:rgb(255,163,0);fill-rule:nonzero;"/>
            </g>
        </g>
    </g>
</svg>
